<?xml version="1.0" standalone="no"?>
<!DOCTYPE svg PUBLIC "-//W3C//DTD SVG 20010904//EN"
 "http://www.w3.org/TR/2001/REC-SVG-20010904/DTD/svg10.dtd">
<svg version="1.0" xmlns="http://www.w3.org/2000/svg"
 width="500.000000pt" height="500.000000pt" viewBox="0 0 500.000000 500.000000"
 preserveAspectRatio="xMidYMid meet">
<metadata>
Created by potrace 1.14, written by Peter Selinger 2001-2017
</metadata>
<g transform="translate(0.000000,500.000000) scale(0.100000,-0.100000)"
fill="#000000" stroke="none">
<path d="M0 3795 l0 -1205 1175 0 1175 0 0 1205 0 1205 -1175 0 -1175 0 0
-1205z m1342 705 c48 -6 124 -22 168 -36 l80 -25 0 -135 0 -135 -22 7 c-13 3
-36 13 -52 21 -74 38 -170 57 -291 57 -106 1 -125 -2 -162 -21 -62 -34 -88
-76 -88 -144 1 -98 27 -120 273 -223 172 -72 229 -103 290 -159 58 -55 88
-109 108 -195 13 -60 14 -83 4 -139 -15 -86 -62 -175 -117 -221 -45 -38 -142
-94 -183 -105 -211 -60 -442 -49 -612 26 l-58 26 0 141 0 140 78 -39 c134 -67
209 -85 353 -85 123 0 128 1 175 30 53 33 74 66 81 128 9 82 -60 143 -243 216
-299 118 -410 216 -433 381 -34 245 125 431 414 484 88 17 128 17 237 5z"/>
<path d="M2610 3795 l0 -1205 1195 0 1195 0 0 1205 0 1205 -1195 0 -1195 0 0
-1205z m1515 641 c33 -8 82 -24 108 -35 l47 -20 0 -136 c0 -74 -2 -135 -5
-135 -3 0 -32 13 -64 30 -155 78 -342 93 -469 39 -101 -44 -193 -152 -239
-282 -21 -62 -25 -89 -25 -202 0 -114 3 -139 25 -202 46 -131 119 -211 238
-260 54 -22 80 -26 164 -26 111 -1 185 18 308 80 l67 33 0 -128 0 -128 -72
-32 c-149 -64 -277 -82 -440 -62 -186 22 -340 112 -441 258 -29 42 -62 102
-74 132 -60 158 -57 145 -57 330 l1 175 40 110 c116 323 387 498 743 479 47
-2 112 -10 145 -18z"/>
<path d="M2620 1195 l0 -1195 1190 0 1190 0 0 1195 0 1195 -1190 0 -1190 0 0
-1195z m916 160 c107 -242 210 -476 228 -519 l35 -80 25 60 c15 32 120 267
234 521 l207 463 118 0 117 0 0 -685 0 -685 -100 0 -100 0 -2 497 -3 497 -220
-497 -220 -497 -55 0 -55 0 -49 113 c-28 61 -64 144 -81 182 -18 39 -97 216
-176 394 l-144 324 -3 -507 -2 -506 -95 0 -95 0 0 685 0 686 121 -3 122 -3
193 -440z"/>
<path d="M3265 1534 c22 -75 27 -65 16 34 0 6 -8 12 -16 12 -12 0 -12 -6 0
-46z"/>
<path d="M4318 1540 c-4 -45 7 -41 17 8 4 19 3 32 -3 32 -6 0 -12 -18 -14 -40z"/>
<path d="M3801 724 c0 -11 3 -14 6 -6 3 7 2 16 -1 19 -3 4 -6 -2 -5 -13z"/>
<path d="M0 1190 l0 -1190 1180 0 1180 0 0 1190 0 1190 -1180 0 -1180 0 0
-1190z m1451 656 c13 -4 57 -19 97 -33 l72 -25 0 -135 c0 -124 -1 -135 -17
-130 -10 3 -56 22 -103 41 -301 124 -562 23 -662 -255 -19 -54 -23 -84 -23
-199 0 -117 3 -144 24 -205 45 -132 125 -219 243 -264 53 -21 80 -24 168 -24
90 0 117 5 193 31 49 17 104 40 123 51 19 12 37 21 40 21 2 0 4 -56 4 -125 l0
-125 -59 -29 c-67 -34 -187 -66 -281 -75 -96 -9 -260 16 -349 53 -212 89 -364
306 -392 557 -40 376 130 706 426 826 131 53 382 75 496 44z"/>
</g>
</svg>
